Coordinates
version=1
nRows=17
nColumns=40
inDegrees=yes

Units are S.I. units (second, meters, Newtons, ...)
Angles are in degrees.

endheader
time	pelvis_tilt	pelvis_list	pelvis_rotation	pelvis_tx	pelvis_ty	pelvis_tz	hip_flexion_r	hip_adduction_r	hip_rotation_r	knee_angle_r	knee_angle_r_beta	ankle_angle_r	subtalar_angle_r	mtp_angle_r	hip_flexion_l	hip_adduction_l	hip_rotation_l	knee_angle_l	knee_angle_l_beta	ankle_angle_l	subtalar_angle_l	mtp_angle_l	lumbar_extension	lumbar_bending	lumbar_rotation	arm_flex_r	arm_add_r	arm_rot_r	elbow_flex_r	pro_sup_r	wrist_flex_r	wrist_dev_r	arm_flex_l	arm_add_l	arm_rot_l	elbow_flex_l	pro_sup_l	wrist_flex_l	wrist_dev_l
     12.28000000	     -3.59941201	     -6.37192272	      3.82128296	      0.95889963	      0.93056801	      0.49932349	      9.90175366	      4.44600337	    -19.98675181	     13.41260752	     13.41260752	     10.50344906	      5.22056943	     -6.96721498	     39.37204161	    -13.14354452	      1.22253636	     56.78222392	     56.78222392	     11.63837829	    -18.49675719	     14.25290070	    -12.85822320	      8.41935295	      4.88677617	     24.36213888	    -15.61068188	     -3.17726267	     36.17704509	     46.34657954	      0.00000000	      0.00000000	     -4.23735296	     -7.61823771	     -1.94737478	     34.49389175	     47.12131028	      0.00000000	      0.00000000
     12.29171429	     -3.58362516	     -6.43974770	      3.86527226	      0.95770007	      0.93034990	      0.49964288	      9.25434031	      4.64783935	    -19.92391896	     13.12449377	     13.12449377	     10.79347576	      5.24138029	     -7.01886129	     39.85782732	    -13.04467924	      1.24306673	     53.81428265	     53.81428265	     11.21140967	    -18.33558876	     14.44457900	    -12.94669361	      8.47790026	      4.47734064	     26.59358791	    -15.18391248	     -3.14111913	     38.18391485	     46.26828222	      0.00000000	      0.00000000	     -5.44470289	     -7.83204780	     -1.99074281	     31.93548097	     47.08133229	      0.00000000	      0.00000000
     12.30342857	     -3.57969157	     -6.49608689	      3.85163072	      0.95668396	      0.93005542	      0.49989880	      8.63203888	      4.82135568	    -19.81060617	     12.89135675	     12.89135675	     11.08366051	      5.36471158	     -7.12146544	     40.12268824	    -12.92378028	      1.26026878	     50.58693569	     50.58693569	     10.48868506	    -18.10507156	     13.69108953	    -12.94485441	      8.46093178	      4.89859403	     28.08840148	    -15.50851335	     -2.49307061	     40.87283549	     46.10784825	      0.00000000	      0.00000000	     -5.48540324	     -7.81070430	     -2.21583930	     27.40758628	     47.05975582	      0.00000000	      0.00000000
     12.31514286	     -3.56673771	     -6.55324384	      3.83445074	      0.95577871	      0.92969769	      0.50000078	      7.98043637	      4.99083855	    -19.68876438	     12.63608668	     12.63608668	     11.39344091	      5.45687827	     -7.16581776	     40.25744997	    -12.73082753	      1.40234435	     47.29356756	     47.29356756	     10.10930704	    -17.63317105	     13.92669534	    -12.98198989	      8.46019398	      4.63731463	     30.22144829	    -15.06935209	     -2.40560579	     42.74554753	     46.03900159	      0.00000000	      0.00000000	     -6.90462272	     -8.05896876	     -2.21516872	     25.97882423	     47.02475312	      0.00000000	      0.00000000
     12.32685714	     -3.56981136	     -6.63832617	      3.79326042	      0.95504082	      0.92928085	      0.50004930	      7.32032877	      5.18530864	    -19.59879481	     12.35632956	     12.35632956	     11.69946580	      5.59314938	     -7.20220725	     40.24242437	    -12.59389306	      1.48958236	     43.88168209	     43.88168209	      9.69566337	    -16.87219326	     13.98632271	    -12.96491797	      8.48272574	      4.45203728	     32.17209397	    -14.66006290	     -2.20550737	     44.74584758	     45.95994901	      0.00000000	      0.00000000	     -8.20722135	     -8.26885563	     -2.16393623	     24.50674642	     46.98672945	      0.00000000	      0.00000000
     12.33857143	     -3.60438233	     -6.81919017	      3.75009861	      0.95448297	      0.92871636	      0.49995350	      6.64230725	      5.47889555	    -19.56035687	     11.99355293	     11.99355293	     12.00939152	      5.87177538	     -7.13175829	     40.09673602	    -12.56259660	      1.56109322	     40.33478263	     40.33478263	      8.61801895	    -15.92027170	     12.19285427	    -12.95209900	      8.65205821	      4.76005059	     33.09340895	    -15.12693496	     -0.96718381	     49.00790800	     45.72960367	      0.00000000	      0.00000000	     -8.83288791	     -8.35325197	     -1.99923789	     22.11643493	     46.91685199	      0.00000000	      0.00000000
     12.35028571	     -3.59305459	     -6.89894003	      3.66770575	      0.95414782	      0.92823352	      0.49977680	      5.93510574	      5.65559609	    -19.38795053	     11.71361075	     11.71361075	     12.32491266	      6.01343036	     -7.17317573	     39.77603378	    -12.44910368	      1.56925245	     36.94156547	     36.94156547	      8.38370229	    -14.50413919	     12.50421279	    -12.90427300	      8.66311249	      4.67854433	     34.95360817	    -14.68466304	     -0.93028293	     50.71954105	     45.67365850	      0.00000000	      0.00000000	    -10.20670360	     -8.53876810	     -1.96983983	     21.36398848	     46.87841796	      0.00000000	      0.00000000
     12.36200000	     -3.74584567	     -7.15538715	      3.59281218	      0.95384765	      0.92731077	      0.49946544	      5.47174611	      5.97424552	    -19.31399393	     11.55374316	     11.55374316	     12.64249217	      6.12445763	     -7.27375828	     39.65914510	    -12.45746037	      1.69304938	     33.80507255	     33.80507255	      8.15179220	    -13.06354455	     12.93642429	    -12.63890038	      8.92018602	      4.94930191	     36.71909957	    -14.62610415	     -0.97278336	     51.98429272	     45.63884008	      0.00000000	      0.00000000	    -11.37605684	     -8.66337894	     -1.97460463	     20.86579561	     46.85381978	      0.00000000	      0.00000000
     12.37371429	     -3.55255317	     -7.25252079	      3.53410101	      0.95430474	      0.92694974	      0.49902623	      4.24732171	      6.26043844	    -19.09696328	     10.75053480	     10.75053480	     12.91505272	      6.47809385	     -7.05050710	     38.94312815	    -12.48636103	      1.27738582	     30.80064525	     30.80064525	      8.00081851	    -11.05329168	     12.68965979	    -12.77139179	      8.97069990	      4.21037667	     37.89264894	    -13.68720469	     -0.38428154	     56.21633399	     45.46554503	      0.00000000	      0.00000000	    -13.22131019	     -8.72321722	     -1.85576400	     20.66490617	     46.76361636	      0.00000000	      0.00000000
     12.38542857	     -3.52356782	     -7.29166468	      3.41387579	      0.95473705	      0.92625490	      0.49840407	      3.45200186	      6.35958343	    -18.84117361	     10.46570554	     10.46570554	     13.28984646	      6.62110632	     -7.06799935	     38.28781049	    -12.37280998	      0.91404933	     28.01259470	     28.01259470	      7.84211673	     -9.59982323	     13.04871744	    -12.63510114	      8.94011208	      4.26277570	     39.23674107	    -13.36893033	     -0.23755489	     58.26161537	     45.39424408	      0.00000000	      0.00000000	    -14.51992676	     -8.83225395	     -1.81347733	     20.48417923	     46.71537927	      0.00000000	      0.00000000
     12.39714286	     -3.68438882	     -7.63189842	      3.25829859	      0.95520751	      0.92490848	      0.49778191	      2.97693014	      6.72701208	    -18.65173091	     10.38165596	     10.38165596	     13.67752140	      6.75817668	     -7.19157079	     38.08733415	    -12.49823088	      0.78631086	     25.96830892	     25.96830892	      7.70484893	     -8.66089712	     13.42204728	    -12.19232452	      9.26973173	      4.62169965	     40.75274891	    -13.40748984	     -0.31005216	     59.38781294	     45.36544301	      0.00000000	      0.00000000	    -15.70197864	     -8.97358615	     -1.84096400	     20.18000383	     46.69280314	      0.00000000	      0.00000000
     12.40885714	     -3.46687679	     -7.55352319	      3.21146408	      0.95634500	      0.92444569	      0.49680310	      1.72068298	      6.77279162	    -18.32164373	      9.69836625	      9.69836625	     14.11582226	      6.85254520	     -6.65031002	     37.08239733	    -12.35102253	     -0.22134296	     23.88219169	     23.88219169	      7.51126563	     -7.10720462	     13.35871689	    -12.40026419	      9.12033032	      4.46397741	     40.65094280	    -13.24690697	      0.42895874	     65.58135484	     45.13110333	      0.00000000	      0.00000000	    -17.67051386	     -9.05825719	     -1.58095670	     22.32930698	     46.51968195	      0.00000000	      0.00000000
     12.42057143	     -3.47208534	     -7.54914702	      3.08593023	      0.95741962	      0.92340942	      0.49569564	      0.98057062	      6.75817283	    -18.04134904	      9.55329686	      9.55329686	     14.58513109	      6.89959513	     -6.65851452	     36.38687488	    -12.15499698	     -0.87508774	     22.33957581	     22.33957581	      7.28432214	     -6.59416070	     13.68118171	    -12.10737468	      9.05702185	      4.31543185	     41.81186787	    -12.69090430	      0.45394002	     67.15867694	     45.08451555	      0.00000000	      0.00000000	    -18.82988548	     -9.02131626	     -1.44237569	     22.12298281	     46.46031909	      0.00000000	      0.00000000
     12.43228571	     -3.49536085	     -7.60268983	      2.96873486	      0.95872343	      0.92215557	      0.49443186	      0.25072826	      6.79874254	    -17.68716277	      9.42067799	      9.42067799	     15.20380763	      6.89039438	     -6.12010847	     35.78506942	    -11.99784785	     -1.47582933	     21.34048011	     21.34048011	      6.85996668	     -6.45136141	     13.21020773	    -11.85415074	      9.06259617	      4.41420956	     42.21393216	    -12.64786511	      0.55451277	     70.81605076	     44.97655203	      0.00000000	      0.00000000	    -20.36626325	     -9.13529537	     -0.97479133	     23.52503057	     46.29037091	      0.00000000	      0.00000000
     12.44400000	     -3.50300675	     -7.51983912	      2.83699375	      0.96009908	      0.92094082	      0.49294090	     -0.40654882	      6.63153900	    -17.39353994	      9.48366024	      9.48366024	     15.73935169	      6.81580215	     -6.10761740	     35.07601516	    -11.71368973	     -2.16200278	     20.61655989	     20.61655989	      6.49190037	     -6.52688690	     13.30882044	    -11.52412439	      8.93886140	      4.24784534	     43.21424944	    -12.12721671	      0.58824355	     72.26012257	     44.93497316	      0.00000000	      0.00000000	    -21.32700858	     -9.01285603	     -0.84021527	     23.40614788	     46.24057374	      0.00000000	      0.00000000
     12.45571429	     -3.56341219	     -7.47806424	      2.71507272	      0.96160680	      0.91945254	      0.49131367	     -0.94169152	      6.48355016	    -17.02965791	      9.71152945	      9.71152945	     16.60846112	      6.62621758	     -5.17967123	     34.44861783	    -11.39895115	     -2.51449926	     20.19633148	     20.19633148	      5.40121427	     -7.35074187	     11.82494855	    -11.21553567	      8.82377910	      4.43884242	     43.25464072	    -12.29525757	      0.65871881	     75.95021148	     44.83639122	      0.00000000	      0.00000000	    -22.62639286	     -9.15599426	     -0.37068170	     24.88618098	     46.09374963	      0.00000000	      0.00000000
     12.46742857	     -3.62326244	     -7.38291276	      2.59210949	      0.96317507	      0.91792860	      0.48954568	     -1.40771117	      6.23738853	    -16.72446816	     10.07399420	     10.07399420	     17.35505153	      6.39555591	     -4.75024994	     33.87264069	    -11.05778255	     -2.81973570	     20.14197668	     20.14197668	      4.52623239	     -8.18980377	     10.99200835	    -10.83983564	      8.65380213	      4.27074903	     43.77267187	    -11.92813324	      0.70672248	     78.03096907	     44.78609600	      0.00000000	      0.00000000	    -23.51293449	     -9.09731138	     -0.01349798	     25.10081190	     46.00521705	      0.00000000	      0.00000000
